<svg width="22" height="22" viewBox="0 0 22 22" fill="none" xmlns="http://www.w3.org/2000/svg">
<path d="M12.7299 2.50965L14.4899 6.02965C14.7299 6.51965 15.3699 6.98965 15.9099 7.07965L19.0999 7.60965C21.1399 7.94965 21.6199 9.42965 20.1499 10.8896L17.6699 13.3696C17.2499 13.7896 17.0199 14.5996 17.1499 15.1796L17.8599 18.2496C18.4199 20.6796 17.1299 21.6196 14.9799 20.3496L11.9899 18.5796C11.4499 18.2596 10.5599 18.2596 10.0099 18.5796L7.01991 20.3496C4.87991 21.6196 3.57991 20.6696 4.13991 18.2496L4.84991 15.1796C4.97991 14.5996 4.74991 13.7896 4.32991 13.3696L1.84991 10.8896C0.389909 9.42965 0.859909 7.94965 2.89991 7.60965L6.08991 7.07965C6.61991 6.98965 7.25991 6.51965 7.49991 6.02965L9.25991 2.50965C10.2199 0.599648 11.7799 0.599648 12.7299 2.50965Z" stroke="black" stroke-width="1.5" stroke-linecap="round" stroke-linejoin="round"/>
</svg>
